<svg width="32" height="32" viewBox="0 0 70 70" fill="none" xmlns="http://www.w3.org/2000/svg">
<path d="M61.0736 5.40817C60.8373 3.89623 59.4201 2.86206 57.9084 3.09831L38.9501 6.06054C37.4381 6.29679 36.4038 7.71397 36.6401 9.22591C36.8763 10.7379 38.2935 11.772 39.8055 11.5358L58.7639 8.57354C60.2759 8.33729 61.3098 6.92011 61.0736 5.40817Z" fill="currentColor"/>
<path d="M20.2403 11.7885C20.0041 10.2766 18.5869 9.24244 17.0749 9.47869L11.2416 10.3901C9.72966 10.6264 8.6955 12.0435 8.93175 13.5555C9.16797 15.0675 10.5851 16.1016 12.0971 15.8654L17.9305 14.9539C19.4424 14.7177 20.4766 13.3005 20.2403 11.7885Z" fill="currentColor"/>
<path d="M61.1015 17.3298C61.0059 15.8025 59.6904 14.6417 58.1633 14.7372L39.2049 15.9221C37.6775 16.0175 36.5167 17.333 36.6123 18.8604C36.7077 20.3877 38.0231 21.5484 39.5506 21.453L58.5089 20.2681C60.0361 20.1726 61.1969 18.8571 61.1015 17.3298Z" fill="currentColor"/>
<path d="M20.2681 19.8819C20.1727 18.3546 18.8572 17.1938 17.3299 17.2893L11.4965 17.6539C9.96921 17.7493 8.80847 19.0649 8.90393 20.5922C8.99939 22.1195 10.3149 23.2802 11.8422 23.1848L17.6755 22.8202C19.2029 22.7247 20.3636 21.4092 20.2681 19.8819Z" fill="currentColor"/>
<path d="M14.3242 33.9062H55.6738C56.8723 33.9062 57.9476 33.9744 58.8604 34.1738C59.7728 34.3732 60.6105 34.7226 61.2451 35.3506C62.5657 36.6579 62.5492 38.6599 61.957 41.0449C60.9333 45.1698 59.0147 47.8566 56.7197 50.0986L56.2559 50.541C55.2045 51.5223 54.0677 52.4411 52.9316 53.3594L52.9297 53.3613C51.7032 54.3565 49.9005 55.8435 48.6836 57.0371L48.0615 57.6465L48.5166 58.3887C48.6946 58.6794 48.9691 59.2003 49.1797 59.7617C49.403 60.3571 49.4919 60.838 49.459 61.1172L49.4521 61.1816V61.2471C49.4528 62.1073 49.2452 62.8556 48.8242 63.4707C48.4585 64.0049 47.9747 64.3753 47.4609 64.6309L47.2393 64.7334C46.1009 65.2229 44.7222 65.2607 43.707 65.2607H26.292C25.3403 65.2607 24.0688 65.2278 22.9756 64.8203L22.7598 64.7334C22.165 64.4776 21.592 64.0814 21.1738 63.4707C20.7603 62.8664 20.5543 62.1336 20.5479 61.292C20.5828 60.967 20.6677 60.4375 20.8154 59.8857C20.9775 59.2806 21.1876 58.754 21.418 58.4297L21.959 57.668L21.291 57.0146C20.0816 55.8303 18.2867 54.35 17.0684 53.3613L17.0674 53.3604L16.2158 52.6699C15.3676 51.978 14.5307 51.277 13.7422 50.541C11.2431 48.2081 9.13303 45.4446 8.04102 41.0449C7.44903 38.6596 7.43306 36.6579 8.75391 35.3506C9.38846 34.7227 10.2259 34.3732 11.1387 34.1738C12.0513 33.9744 13.1256 33.9062 14.3242 33.9062Z" stroke="currentColor" stroke-width="2.1875"/>
<path fill-rule="evenodd" clip-rule="evenodd" d="M29.3148 5.83553C29.3148 4.30524 30.5553 3.0647 32.0857 3.0647C33.616 3.0647 34.8565 4.30524 34.8565 5.83553V21.8772C34.8565 23.4075 33.616 24.648 32.0857 24.648C30.5553 24.648 29.3148 23.4075 29.3148 21.8772V5.83553ZM22.0231 7.29386C22.0231 5.76358 23.2637 4.52303 24.7939 4.52303C26.3242 4.52303 27.5648 5.76358 27.5648 7.29386V21.8772C27.5648 23.4075 26.3242 24.648 24.7939 24.648C23.2637 24.648 22.0231 23.4075 22.0231 21.8772V7.29386ZM17.5023 5.98136C15.972 5.98136 14.7314 7.22191 14.7314 8.7522V32.8124H20.2731V8.7522C20.2731 7.22191 19.0326 5.98136 17.5023 5.98136ZM41.2545 32.8124H35.387C36.3866 28.308 40.4052 24.9397 45.2107 24.9397C50.0159 24.9397 54.0345 28.308 55.0343 32.8124H49.1665C48.3957 31.4223 46.9128 30.4814 45.2107 30.4814C43.5082 30.4814 42.0257 31.4223 41.2545 32.8124Z" fill="currentColor"/>
</svg>
