<svg width="47" height="72" viewBox="0 0 47 72" fill="none" xmlns="http://www.w3.org/2000/svg">
<path d="M24 0C35.0456 0.000131556 44 8.95439 44 20V55H28.5V44.5186C28.5 40.9288 25.5897 38.0187 22 38.0186C18.4101 38.0186 15.5 40.9287 15.5 44.5186V55H0V20C3.22154e-07 8.95431 8.95431 0 20 0H24ZM15.2178 10.6748C13.2849 10.6748 11.7179 12.2419 11.7178 14.1748V18.1748C11.7178 20.1078 13.2848 21.6748 15.2178 21.6748C17.1507 21.6747 18.7178 20.1077 18.7178 18.1748V14.1748C18.7176 12.242 17.1506 10.6749 15.2178 10.6748ZM28.7822 10.5C26.8493 10.5001 25.2822 12.0671 25.2822 14V18C25.2822 19.9329 26.8493 21.4999 28.7822 21.5C30.7152 21.5 32.2822 19.933 32.2822 18V14C32.2822 12.067 30.7152 10.5 28.7822 10.5Z" fill="white"/>
<circle cx="28.75" cy="18.5051" r="2.83752" fill="#040203"/>
<path d="M29.7517 16.5016C29.6679 16.5016 29.5929 16.5538 29.5638 16.6325L29.5048 16.7921C29.421 17.0185 29.3966 17.0721 29.3585 17.1102C29.3204 17.1482 29.2669 17.1726 29.0404 17.2564L28.8808 17.3155C28.8022 17.3446 28.75 17.4195 28.75 17.5034C28.75 17.5872 28.8022 17.6622 28.8808 17.6912L29.0404 17.7503C29.2669 17.8341 29.3204 17.8585 29.3585 17.8966C29.3966 17.9346 29.421 17.9882 29.5048 18.2147L29.5638 18.3743C29.5929 18.4529 29.6679 18.5051 29.7517 18.5051C29.8355 18.5051 29.9105 18.4529 29.9396 18.3743L29.9987 18.2147C30.0825 17.9882 30.1068 17.9346 30.1449 17.8966C30.183 17.8585 30.2366 17.8341 30.463 17.7503L30.6226 17.6912C30.7012 17.6622 30.7534 17.5872 30.7534 17.5034C30.7534 17.4195 30.7012 17.3446 30.6226 17.3155L30.463 17.2564C30.2366 17.1726 30.183 17.1482 30.1449 17.1102C30.1068 17.0721 30.0825 17.0185 29.9987 16.7921L29.9396 16.6325C29.9105 16.5538 29.8355 16.5016 29.7517 16.5016Z" fill="white"/>
<circle cx="15.25" cy="18.6801" r="2.83752" fill="#040203"/>
<path d="M16.2517 16.6767C16.1679 16.6767 16.0929 16.7289 16.0638 16.8075L16.0048 16.9671C15.921 17.1936 15.8966 17.2471 15.8585 17.2852C15.8204 17.3233 15.7669 17.3477 15.5404 17.4315L15.3808 17.4905C15.3022 17.5196 15.25 17.5946 15.25 17.6784C15.25 17.7622 15.3022 17.8372 15.3808 17.8663L15.5404 17.9254C15.7669 18.0091 15.8204 18.0335 15.8585 18.0716C15.8966 18.1097 15.921 18.1632 16.0048 18.3897L16.0638 18.5493C16.0929 18.6279 16.1679 18.6801 16.2517 18.6801C16.3355 18.6801 16.4105 18.6279 16.4396 18.5493L16.4987 18.3897C16.5825 18.1632 16.6068 18.1097 16.6449 18.0716C16.683 18.0335 16.7366 18.0091 16.963 17.9254L17.1226 17.8663C17.2012 17.8372 17.2534 17.7622 17.2534 17.6784C17.2534 17.5946 17.2012 17.5196 17.1226 17.4905L16.963 17.4315C16.7366 17.3477 16.683 17.3233 16.6449 17.2852C16.6068 17.2471 16.5825 17.1936 16.4987 16.9671L16.4396 16.8075C16.4105 16.7289 16.3355 16.6767 16.2517 16.6767Z" fill="white"/>
<path d="M15.8298 27.6908C18.0532 29.9142 23.8341 33.0269 29.1702 27.6908" stroke="black"/>
<path d="M0.632572 65.2046C0.632572 64.6517 0.726286 64.1315 0.913715 63.6442C1.11052 63.1569 1.38229 62.7305 1.72903 62.365C2.07577 61.9995 2.48812 61.7137 2.96606 61.5075C3.45337 61.292 3.98755 61.1842 4.56858 61.1842H4.84972V63.096C4.5592 63.096 4.28275 63.1522 4.02035 63.2647C3.76732 63.3771 3.54709 63.5271 3.35966 63.7145C3.17223 63.9019 3.02229 64.1269 2.90983 64.3893C2.79737 64.6423 2.74115 64.9141 2.74115 65.2046V69H0.632572V65.2046ZM9.56381 61.1842C10.1448 61.1842 10.6931 61.292 11.2085 61.5075C11.7239 61.7137 12.1691 61.9995 12.5439 62.365C12.9282 62.7305 13.228 63.1569 13.4436 63.6442C13.6685 64.1315 13.781 64.6517 13.781 65.2046C13.781 65.3358 13.7716 65.4623 13.7528 65.5841C13.7435 65.6966 13.7294 65.8137 13.7107 65.9355H7.58175C7.74106 66.3385 7.99409 66.6712 8.34084 66.9336C8.69695 67.1866 9.10461 67.3131 9.56381 67.3131C9.90118 67.3131 10.2151 67.2382 10.5056 67.0882C10.7962 66.9383 11.0351 66.7415 11.2226 66.4978H13.556C13.4155 66.8914 13.214 67.2569 12.9516 67.5943C12.6986 67.9317 12.394 68.2222 12.0379 68.4658C11.6911 68.7001 11.3069 68.8829 10.8852 69.0141C10.4728 69.1546 10.0324 69.2249 9.56381 69.2249C8.98278 69.2249 8.43455 69.1218 7.91912 68.9157C7.40369 68.7001 6.95386 68.4096 6.56963 68.0441C6.19478 67.6786 5.89489 67.2522 5.66998 66.7649C5.45443 66.2776 5.34666 65.7575 5.34666 65.2046C5.34666 64.6517 5.45443 64.1315 5.66998 63.6442C5.89489 63.1569 6.19478 62.7305 6.56963 62.365C6.95386 61.9995 7.40369 61.7137 7.91912 61.5075C8.43455 61.292 8.98278 61.1842 9.56381 61.1842ZM11.5459 64.4736C11.3866 64.0706 11.1288 63.7426 10.7727 63.4896C10.4166 63.2272 10.0136 63.096 9.56381 63.096C9.10461 63.096 8.69695 63.2272 8.34084 63.4896C7.99409 63.7426 7.74106 64.0706 7.58175 64.4736H11.5459ZM18.5966 63.096C18.3061 63.096 18.0297 63.1522 17.7673 63.2647C17.5142 63.3771 17.294 63.5271 17.1066 63.7145C16.9191 63.9019 16.7692 64.1269 16.6567 64.3893C16.5443 64.6423 16.4881 64.9141 16.4881 65.2046C16.4881 65.4951 16.5443 65.7715 16.6567 66.0339C16.7692 66.287 16.9191 66.5072 17.1066 66.6946C17.294 66.8821 17.5142 67.032 17.7673 67.1445C18.0297 67.2569 18.3061 67.3131 18.5966 67.3131C18.9902 67.3131 19.3417 67.2147 19.6509 67.0179C19.9695 66.8211 20.2179 66.5634 20.3959 66.2448H22.6591C22.5373 66.6759 22.3499 67.0742 22.0969 67.4397C21.8438 67.7958 21.5393 68.1097 21.1831 68.3815C20.827 68.6439 20.4287 68.8501 19.9883 69C19.5478 69.1499 19.0839 69.2249 18.5966 69.2249C18.0156 69.2249 17.4674 69.1218 16.9519 68.9157C16.4365 68.7001 15.9867 68.4096 15.6025 68.0441C15.2276 67.6786 14.9277 67.2522 14.7028 66.7649C14.4873 66.2776 14.3795 65.7575 14.3795 65.2046C14.3795 64.6517 14.4873 64.1315 14.7028 63.6442C14.9277 63.1569 15.2276 62.7305 15.6025 62.365C15.9867 61.9995 16.4365 61.7137 16.9519 61.5075C17.4674 61.292 18.0156 61.1842 18.5966 61.1842C19.0933 61.1842 19.5619 61.2639 20.0023 61.4232C20.4428 61.5731 20.8411 61.784 21.1972 62.0558C21.5627 62.3182 21.8719 62.6368 22.125 63.0117C22.3874 63.3771 22.5748 63.7801 22.6873 64.2206H20.4662C20.2788 63.8832 20.0211 63.6114 19.6931 63.4053C19.3745 63.1991 19.009 63.096 18.5966 63.096ZM27.3676 61.1842C27.9487 61.1842 28.4922 61.292 28.9983 61.5075C29.5043 61.7137 29.9448 61.9995 30.3196 62.365C30.6945 62.7305 30.9897 63.1569 31.2052 63.6442C31.4302 64.1315 31.5426 64.6517 31.5426 65.2046V69H29.5746V68.0582C29.331 68.4143 29.017 68.7001 28.6328 68.9157C28.2485 69.1218 27.8268 69.2249 27.3676 69.2249C26.796 69.2249 26.2524 69.1218 25.737 68.9157C25.2309 68.7001 24.7905 68.4096 24.4156 68.0441C24.0408 67.6786 23.7409 67.2522 23.516 66.7649C23.3004 66.2776 23.1927 65.7575 23.1927 65.2046C23.1927 64.6517 23.3004 64.1315 23.516 63.6442C23.7409 63.1569 24.0408 62.7305 24.4156 62.365C24.7905 61.9995 25.2309 61.7137 25.737 61.5075C26.2524 61.292 26.796 61.1842 27.3676 61.1842ZM27.4098 67.3131C27.7003 67.3131 27.9721 67.2569 28.2251 67.1445C28.4875 67.032 28.7124 66.8821 28.8999 66.6946C29.0873 66.5072 29.2372 66.287 29.3497 66.0339C29.4622 65.7715 29.5184 65.4951 29.5184 65.2046C29.5184 64.9141 29.4622 64.6423 29.3497 64.3893C29.2372 64.1269 29.0873 63.9019 28.8999 63.7145C28.7124 63.5271 28.4875 63.3771 28.2251 63.2647C27.9721 63.1522 27.7003 63.096 27.4098 63.096C27.1193 63.096 26.8428 63.1522 26.5804 63.2647C26.3274 63.3771 26.1072 63.5271 25.9197 63.7145C25.7323 63.9019 25.5824 64.1269 25.4699 64.3893C25.3575 64.6423 25.3012 64.9141 25.3012 65.2046C25.3012 65.4951 25.3575 65.7715 25.4699 66.0339C25.5824 66.287 25.7323 66.5072 25.9197 66.6946C26.1072 66.8821 26.3274 67.032 26.5804 67.1445C26.8428 67.2569 27.1193 67.3131 27.4098 67.3131ZM36.5073 64.5298C36.7885 64.5579 37.0602 64.6235 37.3226 64.7266C37.5944 64.8297 37.8334 64.9703 38.0395 65.1483C38.2551 65.3264 38.4285 65.5419 38.5597 65.795C38.6909 66.0386 38.7565 66.3198 38.7565 66.6384C38.7565 67.0414 38.6721 67.4069 38.5034 67.7349C38.3347 68.0535 38.1051 68.3253 37.8146 68.5502C37.5335 68.7657 37.2055 68.9297 36.8306 69.0422C36.4651 69.164 36.0762 69.2249 35.6639 69.2249C35.2609 69.2249 34.872 69.164 34.4971 69.0422C34.1223 68.9297 33.7896 68.7657 33.4991 68.5502C33.2179 68.3253 32.993 68.0535 32.8243 67.7349C32.6557 67.4069 32.5713 67.0414 32.5713 66.6384H34.6799C34.6799 66.957 34.783 67.1726 34.9891 67.285C35.2047 67.3975 35.4296 67.4537 35.6639 67.4537C35.8982 67.4537 36.1184 67.3928 36.3246 67.271C36.5401 67.1491 36.6479 66.9664 36.6479 66.7227C36.6479 66.5447 36.5448 66.3854 36.3386 66.2448C36.1325 66.1042 35.8701 66.0105 35.5514 65.9637C35.1859 65.9168 34.8251 65.8278 34.469 65.6966C34.1223 65.5654 33.813 65.4014 33.5413 65.2046C33.2789 65.0078 33.0633 64.7829 32.8946 64.5298C32.7353 64.2674 32.6557 63.9863 32.6557 63.6864C32.6557 63.3022 32.7353 62.9554 32.8946 62.6462C33.0539 62.3369 33.2695 62.0745 33.5413 61.859C33.8224 61.6434 34.1457 61.4794 34.5112 61.367C34.8767 61.2451 35.2609 61.1842 35.6639 61.1842C36.0762 61.1842 36.4605 61.2451 36.8166 61.367C37.1821 61.4794 37.5007 61.6481 37.7725 61.873C38.0536 62.0886 38.2738 62.3557 38.4331 62.6743C38.5925 62.9929 38.6721 63.3584 38.6721 63.7707H36.5635C36.5635 63.6114 36.5354 63.4802 36.4792 63.3771C36.4323 63.2647 36.3667 63.1803 36.2824 63.1241C36.1981 63.0585 36.0997 63.0163 35.9872 62.9976C35.8841 62.9695 35.7763 62.9554 35.6639 62.9554C35.4296 62.9554 35.2187 63.007 35.0313 63.1101C34.8533 63.2038 34.7642 63.3771 34.7642 63.6302C34.7642 63.7426 34.8158 63.8504 34.9189 63.9535C35.0219 64.0472 35.1578 64.1362 35.3265 64.2206C35.4952 64.2955 35.6826 64.3611 35.8888 64.4174C36.095 64.4642 36.3011 64.5017 36.5073 64.5298ZM41.9206 58.8788V61.4091H44.0292V63.2085H41.9206V65.2046C41.9206 65.4951 41.9769 65.7715 42.0893 66.0339C42.2018 66.287 42.3517 66.5072 42.5391 66.6946C42.7266 66.8821 42.9468 67.032 43.1998 67.1445C43.4622 67.2569 43.7387 67.3131 44.0292 67.3131V69.2249H43.7481C43.167 69.2249 42.6329 69.1218 42.1455 68.9157C41.6676 68.7001 41.2553 68.4096 40.9085 68.0441C40.5618 67.6786 40.29 67.2522 40.0932 66.7649C39.9058 66.2776 39.8121 65.7575 39.8121 65.2046V58.8788H41.9206Z" fill="white"/>
</svg>
