<svg width="24" height="24" viewBox="0 0 24 24" fill="none" xmlns="http://www.w3.org/2000/svg">
<path opacity="0.4" d="M12 2.25C12.4142 2.25 12.75 2.58579 12.75 3C12.75 5.00608 13.7606 7.07493 15.3428 8.65717C16.9251 10.2394 18.9939 11.25 21 11.25C21.4142 11.25 21.75 11.5858 21.75 12C21.75 12.4142 21.4142 12.75 21 12.75C18.9939 12.75 16.9251 13.7606 15.3428 15.3428C13.7606 16.9251 12.75 18.9939 12.75 21C12.75 21.4142 12.4142 21.75 12 21.75C11.5858 21.75 11.25 21.4142 11.25 21C11.25 18.9939 10.2394 16.9251 8.65717 15.3428C7.07493 13.7606 5.00608 12.75 3 12.75C2.58579 12.75 2.25 12.4142 2.25 12C2.25 11.5858 2.58579 11.25 3 11.25C5.00608 11.25 7.07493 10.2394 8.65717 8.65717C10.2394 7.07493 11.25 5.00608 11.25 3C11.25 2.58579 11.5858 2.25 12 2.25Z" fill="#474749"/>
<path d="M19.25 1.25C19.4635 1.25 19.6484 1.39794 19.6954 1.6062L19.9296 2.64601C20.0895 3.35601 20.644 3.91047 21.354 4.07041L22.3938 4.30464C22.6021 4.35155 22.75 4.53652 22.75 4.75C22.75 4.96348 22.6021 5.14845 22.3938 5.19536L21.354 5.42959C20.644 5.58953 20.0895 6.14398 19.9296 6.85398L19.6954 7.8938C19.6484 8.10206 19.4635 8.25 19.25 8.25C19.0365 8.25 18.8516 8.10206 18.8046 7.8938L18.5704 6.85398C18.4105 6.14398 17.856 5.58953 17.146 5.42959L16.1062 5.19536C15.8979 5.14845 15.75 4.96348 15.75 4.75C15.75 4.53652 15.8979 4.35155 16.1062 4.30464L17.146 4.07041C17.856 3.91047 18.4105 3.35602 18.5704 2.64601L18.8046 1.6062C18.8516 1.39794 19.0365 1.25 19.25 1.25Z" fill="#474749"/>
<path d="M4.74976 15.75C4.96324 15.75 5.14821 15.8979 5.19512 16.1062L5.42935 17.146C5.58929 17.856 6.14374 18.4105 6.85374 18.5704L7.89356 18.8046C8.10182 18.8516 8.24976 19.0365 8.24976 19.25C8.24976 19.4635 8.10182 19.6484 7.89356 19.6954L6.85374 19.9296C6.14374 20.0895 5.58929 20.644 5.42935 21.354L5.19512 22.3938C5.14821 22.6021 4.96324 22.75 4.74976 22.75C4.53628 22.75 4.35131 22.6021 4.3044 22.3938L4.07017 21.354C3.91023 20.644 3.35578 20.0895 2.64577 19.9296L1.60596 19.6954C1.3977 19.6484 1.24976 19.4635 1.24976 19.25C1.24976 19.0365 1.3977 18.8516 1.60596 18.8046L2.64577 18.5704C3.35578 18.4105 3.91023 17.856 4.07017 17.146L4.3044 16.1062C4.35131 15.8979 4.53628 15.75 4.74976 15.75Z" fill="#474749"/>
</svg>
