<svg width="24" height="24" viewBox="0 0 24 24" fill="none" xmlns="http://www.w3.org/2000/svg">
<path opacity="0.4" d="M15.6417 3.40066C15.6146 3.36553 15.5877 3.33148 15.561 3.29853C15.3236 3.00553 15.0669 2.75714 14.7273 2.5754C14.3877 2.39366 14.0387 2.31783 13.6632 2.28282C13.3109 2.24997 12.8882 2.24999 12.3921 2.25H11.6081C11.112 2.24999 10.6893 2.24997 10.337 2.28282C9.96146 2.31784 9.61238 2.39366 9.2728 2.5754C8.93322 2.75714 8.67649 3.00553 8.43908 3.29854C8.21632 3.57345 7.98186 3.92516 7.7067 4.33794L7.09866 5.25C5.98693 5.25069 5.24957 5.26392 4.62119 5.45454C3.10308 5.91505 1.91509 7.10304 1.45457 8.62115C1.24956 9.29698 1.24974 10.0989 1.25002 11.357L1.25004 13.5489C1.25003 15.1512 1.25002 16.4205 1.36872 17.4248C1.49058 18.4557 1.74642 19.3044 2.32824 20.0134C2.52562 20.2539 2.74616 20.4744 2.98667 20.6718C3.69562 21.2536 4.54432 21.5095 5.57529 21.6313C6.57948 21.75 7.84878 21.75 9.45098 21.75H14.549C16.1512 21.75 17.4206 21.75 18.4248 21.6313C19.4558 21.5095 20.3045 21.2536 21.0134 20.6718C21.254 20.4744 21.4745 20.2539 21.6719 20.0134C22.2537 19.3044 22.5095 18.4557 22.6314 17.4248C22.7501 16.4206 22.7501 15.1512 22.7501 13.549V11.357C22.7504 10.0989 22.7506 9.29698 22.5455 8.62115C22.4443 8.28749 22.308 7.96977 22.1407 7.67222C21.9268 7.81679 21.6729 7.92575 21.3791 7.98581C20.6775 8.1292 20.1292 8.67746 19.9858 9.37902C19.5441 11.5403 16.456 11.5403 16.0142 9.37902C15.8708 8.67746 15.3226 8.1292 14.621 7.98581C12.4596 7.54403 12.4598 4.45593 14.621 4.0142C15.0299 3.93062 15.3867 3.7095 15.6417 3.40066Z" fill="black"/>
<path fill-rule="evenodd" clip-rule="evenodd" d="M18.7612 2.87129C18.5919 2.04292 17.4082 2.04289 17.2389 2.87129C16.9952 4.0635 16.0635 4.9952 14.8713 5.23888C14.043 5.40819 14.0429 6.59181 14.8713 6.76113C16.0635 7.0048 16.9952 7.9365 17.2389 9.12871C17.4082 9.9571 18.5918 9.9571 18.7612 9.12871C19.0048 7.9365 19.9365 7.0048 21.1287 6.76113C21.9571 6.59181 21.9571 5.40819 21.1287 5.23888C19.9365 4.9952 19.0048 4.0635 18.7612 2.87129ZM12 9C9.79086 9 8 10.7909 8 13C8 15.2091 9.79086 17 12 17C14.2092 17 16 15.2091 16 13C16 10.7909 14.2092 9 12 9Z" fill="black"/>
</svg>
