<svg width="16" height="16" viewBox="0 0 16 16" fill="none" xmlns="http://www.w3.org/2000/svg">
<g clip-path="url(#clip0_116_369)">
<path d="M7.99992 14.6667C11.6818 14.6667 14.6666 11.6819 14.6666 8.00004C14.6666 4.31814 11.6818 1.33337 7.99992 1.33337C4.31802 1.33337 1.33325 4.31814 1.33325 8.00004C1.33325 11.6819 4.31802 14.6667 7.99992 14.6667Z" stroke="black"/>
<path opacity="0.4" d="M7.99731 6.99922C7.44505 6.99922 6.99731 7.44696 6.99731 7.99922C6.99731 8.55149 7.44505 8.99922 7.99731 8.99922C8.54958 8.99922 8.99731 8.55149 8.99731 7.99922C8.99731 7.44696 8.54958 6.99922 7.99731 6.99922ZM7.99731 6.99922V4.65979M10.0019 10.007L8.70285 8.70789" stroke="black" stroke-linecap="round" stroke-linejoin="round"/>
</g>
<defs>
<clipPath id="clip0_116_369">
<rect width="16" height="16" fill="white"/>
</clipPath>
</defs>
</svg>
