<svg width="138" height="395" viewBox="0 0 138 395" fill="none" xmlns="http://www.w3.org/2000/svg">
<path d="M66.2855 224.885C72.5671 225.358 78.7582 224.464 84.6374 222.235C90.452 219.893 95.9165 216.389 100.874 211.826C105.781 207.491 110.23 202.284 114.125 196.318C118.04 190.384 121.098 183.415 123.161 175.731C124.189 171.848 124.791 167.717 124.948 163.465C125.154 159.056 124.653 154.533 123.482 150.217C122.138 145.414 119.725 141.208 116.626 138.268C113.408 135.368 109.764 133.72 106.114 133.516C104.409 133.368 102.713 133.414 101.043 133.655C99.4574 133.957 97.8933 134.377 96.357 134.914C94.878 135.425 93.4349 136.074 92.0368 136.857L89.8391 137.969L87.8568 139.251C82.8628 142.646 78.1705 146.75 73.8462 151.507C69.5563 156.079 65.8195 161.552 62.7473 167.763C59.8375 173.658 57.6041 180.207 56.117 187.206L55.5553 189.718L55.1707 192.303C54.9093 193.993 54.6348 195.753 54.4146 197.404C54.0201 200.772 53.7538 204.186 53.6168 207.632C53.5447 209.63 53.5471 211.651 53.5495 213.671C52.222 213.201 51.0233 212.644 49.6112 212.087C44.4495 209.751 39.4626 206.483 34.7845 202.372C30.3361 198.362 26.2809 193.487 22.7586 187.917C16.2437 177.022 11.4315 164.46 8.68377 151.174C6.11537 138.723 4.76988 126.017 4.68613 113.423C4.58128 101.885 5.1467 90.4551 6.37689 79.2441C7.37811 69.3885 8.8588 59.7088 10.8091 50.2695C13.6151 36.402 18.0851 23.5181 24.042 12.1288C28.4424 4.07634 31.7059 0.341539 31.2982 -3.9759e-05C30.3511 0.561964 29.496 1.3537 28.7683 2.34213C26.5478 4.86741 24.4887 7.64979 22.6092 10.6647C15.9831 21.7121 10.9517 34.5404 7.7501 48.5498C5.49202 58.063 3.72742 67.8554 2.46893 77.857C0.959043 89.2747 0.137642 100.948 0.0129703 112.759C-0.139482 125.907 1.0517 139.219 3.55103 152.299C6.29282 166.738 11.3251 180.454 18.2571 192.38C22.1218 198.724 26.6048 204.296 31.5471 208.899C36.7398 213.629 42.3004 217.4 48.0713 220.104C50.0529 221.073 52.0603 221.889 54.0839 222.549C54.5753 230.347 55.5664 238.142 57.0452 245.841C61.1012 266.296 67.2429 286.123 75.2718 304.682C81.0265 318.177 87.5048 331.116 94.6436 343.373C102.485 357.028 111.271 369.614 120.849 380.914L123.925 384.281L120.38 383.411C116.563 382.616 112.866 382.14 109.346 381.737C103.122 381.146 96.9253 381.219 90.8107 381.956C80.3473 383.227 74.3031 385.974 74.5313 387.151C74.7595 388.329 81.1596 388.053 91.3052 388.415C96.4137 388.675 102.465 389.059 109.17 390.151C112.543 390.677 116.057 391.35 119.671 392.21C121.495 392.671 123.341 393.128 125.198 393.652C126.138 393.911 126.967 394.222 128.357 394.48C130.173 394.882 131.971 394.452 133.475 393.256C134.267 392.588 134.934 391.683 135.435 390.597C135.817 389.737 136.111 388.797 136.308 387.802C136.572 386.319 136.717 384.784 136.742 383.222C136.836 380.749 136.883 378.283 136.964 375.879C137.074 371.045 137.14 366.387 137.191 361.933C137.199 353.039 136.978 345.124 136.677 338.231C136.044 324.855 134.93 316.37 133.969 316.281C133.008 316.193 132.311 324.452 131.649 337.723L130.655 361.016C130.476 365.4 130.278 369.978 130.064 374.749C129.955 377.124 129.856 379.564 129.757 382.004C129.757 382.071 129.767 382.138 129.787 382.202C128.761 380.608 127.263 378.413 125.045 375.385C116.486 363.497 108.438 350.916 100.952 337.722C94.272 325.718 88.1699 313.147 82.6933 300.106C75.154 282.401 69.3624 263.542 65.4949 244.105C64.2761 237.663 63.4107 231.152 62.9066 224.63C64.0447 224.792 65.1828 224.954 66.3108 225.05L66.2855 224.885ZM62.5003 209.029C62.5901 205.97 62.7962 202.936 63.1178 199.941C63.2939 198.466 63.5394 196.98 63.7566 195.464L64.0992 193.222L64.5907 191.024C65.818 184.982 67.7129 179.331 70.2116 174.263C72.8348 168.873 76.036 164.117 79.7192 160.138C83.5632 155.799 87.7483 152.054 92.2132 148.956L93.9099 147.82L95.6368 146.881C96.7727 146.25 97.9392 145.711 99.1312 145.266C100.307 144.749 101.4 144.615 102.693 144.248C103.84 144.067 105.006 144.023 106.179 144.117C108.184 144.01 110.231 144.842 111.999 146.483C113.768 148.124 115.159 150.483 115.957 153.191C117.426 159.587 117.304 166.262 115.612 172.073C113.893 178.67 111.328 184.672 108.033 189.81C104.571 195.231 100.609 199.979 96.2299 203.95C91.912 208.081 87.1324 211.275 82.0313 213.44C76.9004 215.441 71.4902 216.271 65.9955 215.903C64.8031 215.85 63.6007 215.732 62.4163 215.577C62.3836 213.359 62.379 211.17 62.4237 208.839" fill="#474749"/>
</svg>
