<svg width="16" height="16" viewBox="0 0 16 16" fill="none" xmlns="http://www.w3.org/2000/svg">
<path d="M10.6051 10.9773C10.6901 10.0621 10.4014 9.02514 9.29293 7.92188C9.301 9.09594 8.84607 10.0737 8.3878 10.6328C8.26553 10.7819 8.06767 10.8476 7.8798 10.8013C7.69193 10.7549 7.5478 10.605 7.50987 10.4163C7.32667 9.50588 6.80627 9.10481 6.25199 8.82241C6.21441 9.59821 5.87398 10.1566 5.62622 10.563C5.55624 10.6778 5.49365 10.7805 5.44737 10.8725C4.71021 12.338 5.60276 13.4016 6.22029 14.1375C6.71573 14.6256 7.4594 14.9665 7.95613 15.1667C9.5732 14.4127 10.4763 12.3649 10.6051 10.9773Z" fill="#FF4F6C"/>
<path opacity="0.4" d="M7.09722 0.86821C7.24229 0.811223 7.40596 0.824443 7.53976 0.903957C10.3837 2.59446 13.0107 5.48128 13.8713 8.26405C14.3051 9.66698 14.3036 11.0958 13.5806 12.3213C12.8582 13.5459 11.474 14.4678 9.35676 14.9812C8.06309 15.295 6.42816 15.1556 5.804 14.9645C3.89472 14.2629 2.54435 12.9488 2.04435 11.3453C1.54127 9.73192 1.92695 7.91438 3.3136 6.27963C3.75843 5.75521 4.1471 5.32022 4.48932 4.9372C5.69319 3.58983 6.32241 2.88561 6.80042 1.1944C6.84242 1.04585 6.95222 0.92519 7.09722 0.86821Z" fill="#FF4F6C"/>
</svg>
