<svg width="24" height="24" viewBox="0 0 24 24" fill="none" xmlns="http://www.w3.org/2000/svg">
<path d="M13.702 2.004c-.364-.053-.66.264-.556.618.226.772.093 1.63-.413 2.313-.37.499-.9.84-1.487.997a.403.403 0 0 0-.236.608c.373.52.93.89 1.578.97a2.88 2.88 0 0 0 2.498-.89c.657-.706.88-1.683.658-2.578a2.88 2.88 0 0 0-2.042-2.038Z" fill="#43B02A"/>
<path d="M12.35 7.2c-.98.12-1.86.58-2.51 1.28L4.29 14.56a4.15 4.15 0 0 0-.22 5.48 4.15 4.15 0 0 0 5.48.58l6.27-4.58c.81-.59 1.37-1.42 1.59-2.38.22-.96.1-1.96-.36-2.83a4.15 4.15 0 0 0-4.7-2.63Z" fill="#43B02A"/>
</svg>
