<svg width="128" height="128" viewBox="0 0 128 128" fill="none" xmlns="http://www.w3.org/2000/svg">
<path opacity="0.4" d="M40.1344 44.5327C47.7527 44.1825 55.489 44 63.9999 44C72.5109 44 80.2474 44.1825 87.8655 44.5327C98.8415 45.0373 107.754 53.5371 109.203 64.2944C109.992 70.1632 110.667 76.3296 110.667 82.6667C110.667 89.0037 109.992 95.1701 109.203 101.039C107.754 111.796 98.8415 120.296 87.8655 120.801C80.2474 121.151 72.5109 121.333 63.9999 121.333C55.489 121.333 47.7527 121.151 40.1344 120.801C29.1581 120.296 20.2457 111.796 18.7974 101.039C18.0072 95.1701 17.3333 89.0037 17.3333 82.6667C17.3333 76.3296 18.0072 70.1632 18.7974 64.2944C20.2457 53.5371 29.1581 45.0373 40.1344 44.5327Z" fill="black"/>
<path fill-rule="evenodd" clip-rule="evenodd" d="M85.3333 77.2811C88.2789 77.2811 90.6667 79.6688 90.6667 82.6144V82.6677C90.6667 85.6133 88.2789 88.0011 85.3333 88.0011C82.3877 88.0011 80 85.6133 80 82.6677V82.6144C80 79.6688 82.3877 77.2811 85.3333 77.2811Z" fill="black"/>
<path fill-rule="evenodd" clip-rule="evenodd" d="M64.0001 77.2811C66.9457 77.2811 69.3334 79.6688 69.3334 82.6144V82.6677C69.3334 85.6133 66.9457 88.0011 64.0001 88.0011C61.0545 88.0011 58.6667 85.6133 58.6667 82.6677V82.6144C58.6667 79.6688 61.0545 77.2811 64.0001 77.2811Z" fill="black"/>
<path fill-rule="evenodd" clip-rule="evenodd" d="M42.6666 77.2811C45.6121 77.2811 47.9999 79.6688 47.9999 82.6144V82.6677C47.9999 85.6133 45.6121 88.0011 42.6666 88.0011C39.7211 88.0011 37.3333 85.6133 37.3333 82.6677V82.6144C37.3333 79.6688 39.7211 77.2811 42.6666 77.2811Z" fill="black"/>
<path d="M45.3334 36C45.3334 25.6907 53.6907 17.3334 64.0001 17.3334C74.3094 17.3334 82.6667 25.6907 82.6667 36V44.3209C84.4107 44.3828 86.1414 44.4535 87.8657 44.5327C89.759 44.6198 91.5905 44.9447 93.3334 45.478V36C93.3334 19.7996 80.2006 6.66669 64.0001 6.66669C47.7997 6.66669 34.6667 19.7996 34.6667 36V45.478C36.4095 44.9447 38.2413 44.6198 40.1346 44.5327C41.859 44.4535 43.5894 44.3828 45.3334 44.3209V36Z" fill="black"/>
</svg>
