<svg width="16" height="16" viewBox="0 0 16 16" fill="none" xmlns="http://www.w3.org/2000/svg">
<g clip-path="url(#clip0_116_374)">
<path d="M2.66675 9.33337H14.6667" stroke="black" stroke-linecap="round" stroke-linejoin="round"/>
<path d="M3.33325 14.6667L3.95363 14.0463C4.30614 13.6938 4.48239 13.5176 4.70448 13.4174C4.92657 13.3171 5.17535 13.3016 5.6729 13.2705L7.84119 13.135C8.90685 13.0684 9.43972 13.035 9.90859 12.8099C10.3775 12.5847 10.7367 12.1896 11.4549 11.3996L13.3333 9.33337H10.9999L9.80465 10.5286C9.72519 10.6081 9.68539 10.6479 9.64405 10.683C9.43139 10.8636 9.16739 10.973 8.88932 10.9956C8.83519 11 8.77899 11 8.66659 11M8.66659 11C8.66659 10.6902 8.66659 10.5354 8.64099 10.4066C8.53579 9.87764 8.12232 9.46417 7.59339 9.35897C7.46459 9.33337 7.30972 9.33337 6.99992 9.33337H6.47891C5.78222 9.33337 5.43387 9.33337 5.10722 9.41737C4.86391 9.47991 4.63067 9.57651 4.41439 9.70431C4.12403 9.87591 3.87771 10.1222 3.38508 10.6149L1.33325 12.6667M8.66659 11H6.33325" stroke="black" stroke-linecap="round" stroke-linejoin="round"/>
<path opacity="0.4" d="M3.33325 7.66671C3.33325 4.72118 5.72106 2.33337 8.66659 2.33337M8.66659 2.33337C11.6121 2.33337 13.9999 4.72118 13.9999 7.66671M8.66659 2.33337V1.33337" stroke="black" stroke-linecap="round" stroke-linejoin="round"/>
</g>
<defs>
<clipPath id="clip0_116_374">
<rect width="16" height="16" fill="white"/>
</clipPath>
</defs>
</svg>
